<mxfile host="app.diagrams.net" modified="2021-10-08T23:33:10.408Z" agent="5.0 (Windows NT 10.0; Win64; x64) AppleWebKit/537.36 (KHTML, like Gecko) Chrome/94.0.4606.71 Safari/537.36" etag="tqV748tFo55aF4QT84fb" version="15.5.0" type="github">
  <diagram id="R2lEEEUBdFMjLlhIrx00" name="Page-1">
    <mxGraphModel dx="1146" dy="548" grid="1" gridSize="10" guides="1" tooltips="1" connect="1" arrows="1" fold="1" page="1" pageScale="1" pageWidth="850" pageHeight="1100" math="0" shadow="0" extFonts="Permanent Marker^https://fonts.googleapis.com/css?family=Permanent+Marker">
      <root>
        <mxCell id="0" />
        <mxCell id="1" parent="0" />
        <mxCell id="v_TApCNlm0OIuF-yh1vD-1" value="faculdade" style="whiteSpace=wrap;html=1;align=center;" vertex="1" parent="1">
          <mxGeometry x="530" y="100" width="100" height="40" as="geometry" />
        </mxCell>
        <mxCell id="v_TApCNlm0OIuF-yh1vD-2" value="modulo&amp;nbsp;" style="whiteSpace=wrap;html=1;align=center;" vertex="1" parent="1">
          <mxGeometry x="290" y="220" width="100" height="40" as="geometry" />
        </mxCell>
        <mxCell id="v_TApCNlm0OIuF-yh1vD-3" value="cursos" style="whiteSpace=wrap;html=1;align=center;" vertex="1" parent="1">
          <mxGeometry x="290" y="100" width="100" height="40" as="geometry" />
        </mxCell>
        <mxCell id="v_TApCNlm0OIuF-yh1vD-4" value="alunos" style="whiteSpace=wrap;html=1;align=center;" vertex="1" parent="1">
          <mxGeometry x="540" y="240" width="100" height="40" as="geometry" />
        </mxCell>
        <mxCell id="v_TApCNlm0OIuF-yh1vD-5" value="coordenador&amp;nbsp;" style="whiteSpace=wrap;html=1;align=center;" vertex="1" parent="1">
          <mxGeometry x="70" y="100" width="100" height="40" as="geometry" />
        </mxCell>
        <mxCell id="v_TApCNlm0OIuF-yh1vD-6" value="mensalidade" style="whiteSpace=wrap;html=1;align=center;" vertex="1" parent="1">
          <mxGeometry x="540" y="390" width="100" height="40" as="geometry" />
        </mxCell>
        <mxCell id="v_TApCNlm0OIuF-yh1vD-7" value="" style="ellipse;whiteSpace=wrap;html=1;align=center;" vertex="1" parent="1">
          <mxGeometry x="290" y="60" width="30" height="20" as="geometry" />
        </mxCell>
        <mxCell id="v_TApCNlm0OIuF-yh1vD-8" value="codigo" style="text;html=1;align=center;verticalAlign=middle;resizable=0;points=[];autosize=1;strokeColor=none;fillColor=none;" vertex="1" parent="1">
          <mxGeometry x="260" y="40" width="50" height="20" as="geometry" />
        </mxCell>
        <mxCell id="v_TApCNlm0OIuF-yh1vD-9" value="nome" style="text;html=1;align=center;verticalAlign=middle;resizable=0;points=[];autosize=1;strokeColor=none;fillColor=none;" vertex="1" parent="1">
          <mxGeometry x="310" y="10" width="50" height="20" as="geometry" />
        </mxCell>
        <mxCell id="v_TApCNlm0OIuF-yh1vD-10" value="" style="ellipse;whiteSpace=wrap;html=1;align=center;" vertex="1" parent="1">
          <mxGeometry x="335" y="30" width="30" height="20" as="geometry" />
        </mxCell>
        <mxCell id="v_TApCNlm0OIuF-yh1vD-11" value="" style="ellipse;whiteSpace=wrap;html=1;align=center;" vertex="1" parent="1">
          <mxGeometry x="370" y="60" width="30" height="20" as="geometry" />
        </mxCell>
        <mxCell id="v_TApCNlm0OIuF-yh1vD-13" value="carga horaria" style="text;html=1;align=center;verticalAlign=middle;resizable=0;points=[];autosize=1;strokeColor=none;fillColor=none;" vertex="1" parent="1">
          <mxGeometry x="370" y="40" width="90" height="20" as="geometry" />
        </mxCell>
        <mxCell id="v_TApCNlm0OIuF-yh1vD-14" value="" style="ellipse;whiteSpace=wrap;html=1;align=center;" vertex="1" parent="1">
          <mxGeometry x="680" y="220" width="30" height="20" as="geometry" />
        </mxCell>
        <mxCell id="v_TApCNlm0OIuF-yh1vD-15" value="" style="ellipse;whiteSpace=wrap;html=1;align=center;" vertex="1" parent="1">
          <mxGeometry x="680" y="260" width="30" height="20" as="geometry" />
        </mxCell>
        <mxCell id="v_TApCNlm0OIuF-yh1vD-16" value="nome" style="text;html=1;align=center;verticalAlign=middle;resizable=0;points=[];autosize=1;strokeColor=none;fillColor=none;" vertex="1" parent="1">
          <mxGeometry x="685" y="200" width="50" height="20" as="geometry" />
        </mxCell>
        <mxCell id="v_TApCNlm0OIuF-yh1vD-17" value="telefone" style="text;html=1;align=center;verticalAlign=middle;resizable=0;points=[];autosize=1;strokeColor=none;fillColor=none;" vertex="1" parent="1">
          <mxGeometry x="700" y="250" width="60" height="20" as="geometry" />
        </mxCell>
        <mxCell id="v_TApCNlm0OIuF-yh1vD-22" value="professor" style="whiteSpace=wrap;html=1;align=center;" vertex="1" parent="1">
          <mxGeometry x="160" y="340" width="100" height="40" as="geometry" />
        </mxCell>
        <mxCell id="v_TApCNlm0OIuF-yh1vD-26" value="" style="ellipse;whiteSpace=wrap;html=1;align=center;" vertex="1" parent="1">
          <mxGeometry x="90" y="400" width="30" height="20" as="geometry" />
        </mxCell>
        <mxCell id="v_TApCNlm0OIuF-yh1vD-27" value="" style="ellipse;whiteSpace=wrap;html=1;align=center;" vertex="1" parent="1">
          <mxGeometry x="150" y="440" width="30" height="20" as="geometry" />
        </mxCell>
        <mxCell id="v_TApCNlm0OIuF-yh1vD-28" value="nome" style="text;html=1;align=center;verticalAlign=middle;resizable=0;points=[];autosize=1;strokeColor=none;fillColor=none;" vertex="1" parent="1">
          <mxGeometry x="70" y="380" width="50" height="20" as="geometry" />
        </mxCell>
        <mxCell id="v_TApCNlm0OIuF-yh1vD-30" value="titulação&amp;nbsp;" style="text;html=1;align=center;verticalAlign=middle;resizable=0;points=[];autosize=1;strokeColor=none;fillColor=none;" vertex="1" parent="1">
          <mxGeometry x="160" y="460" width="60" height="20" as="geometry" />
        </mxCell>
        <mxCell id="v_TApCNlm0OIuF-yh1vD-31" value="" style="endArrow=none;html=1;rounded=0;edgeStyle=orthogonalEdgeStyle;" edge="1" parent="1">
          <mxGeometry relative="1" as="geometry">
            <mxPoint x="589.5" y="215" as="sourcePoint" />
            <mxPoint x="589.5" y="245" as="targetPoint" />
          </mxGeometry>
        </mxCell>
        <mxCell id="v_TApCNlm0OIuF-yh1vD-32" value="N" style="resizable=0;html=1;align=right;verticalAlign=bottom;" connectable="0" vertex="1" parent="v_TApCNlm0OIuF-yh1vD-31">
          <mxGeometry x="1" relative="1" as="geometry" />
        </mxCell>
        <mxCell id="v_TApCNlm0OIuF-yh1vD-33" value="" style="endArrow=none;html=1;rounded=0;edgeStyle=orthogonalEdgeStyle;" edge="1" parent="1">
          <mxGeometry relative="1" as="geometry">
            <mxPoint x="589.5" y="180" as="sourcePoint" />
            <mxPoint x="589.5" y="140" as="targetPoint" />
          </mxGeometry>
        </mxCell>
        <mxCell id="v_TApCNlm0OIuF-yh1vD-34" value="1" style="resizable=0;html=1;align=right;verticalAlign=bottom;" connectable="0" vertex="1" parent="v_TApCNlm0OIuF-yh1vD-33">
          <mxGeometry x="1" relative="1" as="geometry">
            <mxPoint y="20" as="offset" />
          </mxGeometry>
        </mxCell>
        <mxCell id="v_TApCNlm0OIuF-yh1vD-35" value="coordena" style="shape=rhombus;perimeter=rhombusPerimeter;whiteSpace=wrap;html=1;align=center;" vertex="1" parent="1">
          <mxGeometry x="200" y="95" width="60" height="50" as="geometry" />
        </mxCell>
        <mxCell id="v_TApCNlm0OIuF-yh1vD-36" value="oferece" style="shape=rhombus;perimeter=rhombusPerimeter;whiteSpace=wrap;html=1;align=center;" vertex="1" parent="1">
          <mxGeometry x="430" y="95" width="60" height="50" as="geometry" />
        </mxCell>
        <mxCell id="v_TApCNlm0OIuF-yh1vD-37" value="matricula&amp;nbsp;" style="shape=rhombus;perimeter=rhombusPerimeter;whiteSpace=wrap;html=1;align=center;" vertex="1" parent="1">
          <mxGeometry x="560" y="165" width="60" height="50" as="geometry" />
        </mxCell>
        <mxCell id="v_TApCNlm0OIuF-yh1vD-38" value="composto" style="shape=rhombus;perimeter=rhombusPerimeter;whiteSpace=wrap;html=1;align=center;" vertex="1" parent="1">
          <mxGeometry x="310" y="160" width="60" height="50" as="geometry" />
        </mxCell>
        <mxCell id="v_TApCNlm0OIuF-yh1vD-39" value="ministra" style="shape=rhombus;perimeter=rhombusPerimeter;whiteSpace=wrap;html=1;align=center;" vertex="1" parent="1">
          <mxGeometry x="310" y="290" width="60" height="50" as="geometry" />
        </mxCell>
        <mxCell id="v_TApCNlm0OIuF-yh1vD-40" value="" style="endArrow=none;html=1;rounded=0;edgeStyle=orthogonalEdgeStyle;" edge="1" parent="1">
          <mxGeometry relative="1" as="geometry">
            <mxPoint x="640" y="270" as="sourcePoint" />
            <mxPoint x="680" y="270" as="targetPoint" />
          </mxGeometry>
        </mxCell>
        <mxCell id="v_TApCNlm0OIuF-yh1vD-41" value="" style="endArrow=none;html=1;rounded=0;edgeStyle=orthogonalEdgeStyle;" edge="1" parent="1">
          <mxGeometry relative="1" as="geometry">
            <mxPoint x="640" y="239" as="sourcePoint" />
            <mxPoint x="685" y="239" as="targetPoint" />
          </mxGeometry>
        </mxCell>
        <mxCell id="v_TApCNlm0OIuF-yh1vD-42" value="" style="endArrow=none;html=1;rounded=0;edgeStyle=orthogonalEdgeStyle;entryX=0;entryY=1;entryDx=0;entryDy=0;" edge="1" parent="1" target="v_TApCNlm0OIuF-yh1vD-22">
          <mxGeometry relative="1" as="geometry">
            <mxPoint x="164.5" y="435" as="sourcePoint" />
            <mxPoint x="164.5" y="385" as="targetPoint" />
            <Array as="points">
              <mxPoint x="165" y="440" />
              <mxPoint x="160" y="440" />
            </Array>
          </mxGeometry>
        </mxCell>
        <mxCell id="v_TApCNlm0OIuF-yh1vD-43" value="" style="resizable=0;html=1;align=right;verticalAlign=bottom;" connectable="0" vertex="1" parent="v_TApCNlm0OIuF-yh1vD-42">
          <mxGeometry x="1" relative="1" as="geometry" />
        </mxCell>
        <mxCell id="v_TApCNlm0OIuF-yh1vD-44" value="" style="endArrow=none;html=1;rounded=0;edgeStyle=orthogonalEdgeStyle;entryX=0;entryY=0.5;entryDx=0;entryDy=0;" edge="1" parent="1" target="v_TApCNlm0OIuF-yh1vD-22">
          <mxGeometry relative="1" as="geometry">
            <mxPoint x="120" y="405" as="sourcePoint" />
            <mxPoint x="115.5" y="350" as="targetPoint" />
            <Array as="points">
              <mxPoint x="120" y="410" />
              <mxPoint x="116" y="410" />
              <mxPoint x="116" y="360" />
            </Array>
          </mxGeometry>
        </mxCell>
        <mxCell id="v_TApCNlm0OIuF-yh1vD-45" value="" style="resizable=0;html=1;align=right;verticalAlign=bottom;" connectable="0" vertex="1" parent="v_TApCNlm0OIuF-yh1vD-44">
          <mxGeometry x="1" relative="1" as="geometry" />
        </mxCell>
        <mxCell id="v_TApCNlm0OIuF-yh1vD-46" value="" style="endArrow=none;html=1;rounded=0;edgeStyle=orthogonalEdgeStyle;exitX=0;exitY=0.5;exitDx=0;exitDy=0;" edge="1" parent="1" source="v_TApCNlm0OIuF-yh1vD-39">
          <mxGeometry relative="1" as="geometry">
            <mxPoint x="259" y="320" as="sourcePoint" />
            <mxPoint x="259" y="345" as="targetPoint" />
          </mxGeometry>
        </mxCell>
        <mxCell id="v_TApCNlm0OIuF-yh1vD-50" value="pagam" style="shape=rhombus;perimeter=rhombusPerimeter;whiteSpace=wrap;html=1;align=center;" vertex="1" parent="1">
          <mxGeometry x="560" y="310" width="60" height="50" as="geometry" />
        </mxCell>
        <mxCell id="v_TApCNlm0OIuF-yh1vD-52" value="n" style="endArrow=none;html=1;rounded=0;edgeStyle=orthogonalEdgeStyle;" edge="1" parent="1">
          <mxGeometry x="1" y="10" relative="1" as="geometry">
            <mxPoint x="340.25" y="220" as="sourcePoint" />
            <mxPoint x="339.75" y="210" as="targetPoint" />
            <mxPoint as="offset" />
          </mxGeometry>
        </mxCell>
        <mxCell id="v_TApCNlm0OIuF-yh1vD-57" value="" style="endArrow=none;html=1;rounded=0;edgeStyle=orthogonalEdgeStyle;" edge="1" parent="1">
          <mxGeometry relative="1" as="geometry">
            <mxPoint x="339.8" y="290" as="sourcePoint" />
            <mxPoint x="339.8" y="260" as="targetPoint" />
          </mxGeometry>
        </mxCell>
        <mxCell id="v_TApCNlm0OIuF-yh1vD-59" value="" style="endArrow=none;html=1;rounded=0;edgeStyle=orthogonalEdgeStyle;" edge="1" parent="1">
          <mxGeometry relative="1" as="geometry">
            <mxPoint x="589.6600000000002" y="310" as="sourcePoint" />
            <mxPoint x="589.6600000000002" y="280" as="targetPoint" />
          </mxGeometry>
        </mxCell>
        <mxCell id="v_TApCNlm0OIuF-yh1vD-60" value="" style="endArrow=none;html=1;rounded=0;edgeStyle=orthogonalEdgeStyle;" edge="1" parent="1">
          <mxGeometry relative="1" as="geometry">
            <mxPoint x="589.6600000000002" y="390" as="sourcePoint" />
            <mxPoint x="589.6600000000002" y="360" as="targetPoint" />
          </mxGeometry>
        </mxCell>
        <mxCell id="v_TApCNlm0OIuF-yh1vD-61" value="" style="ellipse;whiteSpace=wrap;html=1;align=center;" vertex="1" parent="1">
          <mxGeometry x="610" y="460" width="30" height="20" as="geometry" />
        </mxCell>
        <mxCell id="v_TApCNlm0OIuF-yh1vD-64" value="descontos" style="text;html=1;align=center;verticalAlign=middle;resizable=0;points=[];autosize=1;strokeColor=none;fillColor=none;" vertex="1" parent="1">
          <mxGeometry x="590" y="480" width="70" height="20" as="geometry" />
        </mxCell>
        <mxCell id="v_TApCNlm0OIuF-yh1vD-65" value="" style="endArrow=none;html=1;rounded=0;edgeStyle=orthogonalEdgeStyle;" edge="1" parent="1">
          <mxGeometry relative="1" as="geometry">
            <mxPoint x="624.6600000000003" y="460" as="sourcePoint" />
            <mxPoint x="624.6600000000003" y="430" as="targetPoint" />
          </mxGeometry>
        </mxCell>
        <mxCell id="v_TApCNlm0OIuF-yh1vD-66" value="" style="endArrow=none;html=1;rounded=0;edgeStyle=orthogonalEdgeStyle;" edge="1" parent="1">
          <mxGeometry relative="1" as="geometry">
            <mxPoint x="339.65999999999997" y="140" as="sourcePoint" />
            <mxPoint x="340" y="160" as="targetPoint" />
            <Array as="points">
              <mxPoint x="340" y="140" />
              <mxPoint x="340" y="140" />
            </Array>
          </mxGeometry>
        </mxCell>
        <mxCell id="v_TApCNlm0OIuF-yh1vD-68" value="" style="endArrow=none;html=1;rounded=0;edgeStyle=orthogonalEdgeStyle;" edge="1" parent="1">
          <mxGeometry relative="1" as="geometry">
            <mxPoint x="170" y="119.66" as="sourcePoint" />
            <mxPoint x="200.00000000000028" y="119.66" as="targetPoint" />
          </mxGeometry>
        </mxCell>
        <mxCell id="v_TApCNlm0OIuF-yh1vD-69" value="" style="endArrow=none;html=1;rounded=0;edgeStyle=orthogonalEdgeStyle;" edge="1" parent="1">
          <mxGeometry relative="1" as="geometry">
            <mxPoint x="260" y="119.65999999999997" as="sourcePoint" />
            <mxPoint x="290.00000000000045" y="119.65999999999997" as="targetPoint" />
          </mxGeometry>
        </mxCell>
        <mxCell id="v_TApCNlm0OIuF-yh1vD-70" value="" style="endArrow=none;html=1;rounded=0;edgeStyle=orthogonalEdgeStyle;entryX=0;entryY=0.5;entryDx=0;entryDy=0;" edge="1" parent="1" target="v_TApCNlm0OIuF-yh1vD-36">
          <mxGeometry relative="1" as="geometry">
            <mxPoint x="390" y="119.65999999999997" as="sourcePoint" />
            <mxPoint x="420.00000000000045" y="119.65999999999997" as="targetPoint" />
          </mxGeometry>
        </mxCell>
        <mxCell id="v_TApCNlm0OIuF-yh1vD-71" value="" style="endArrow=none;html=1;rounded=0;edgeStyle=orthogonalEdgeStyle;exitX=1;exitY=0.5;exitDx=0;exitDy=0;" edge="1" parent="1" source="v_TApCNlm0OIuF-yh1vD-36">
          <mxGeometry relative="1" as="geometry">
            <mxPoint x="500" y="119.65999999999997" as="sourcePoint" />
            <mxPoint x="530.0000000000005" y="119.65999999999997" as="targetPoint" />
          </mxGeometry>
        </mxCell>
        <mxCell id="v_TApCNlm0OIuF-yh1vD-72" value="" style="endArrow=none;html=1;rounded=0;edgeStyle=orthogonalEdgeStyle;" edge="1" parent="1">
          <mxGeometry relative="1" as="geometry">
            <mxPoint x="384.65999999999985" y="80" as="sourcePoint" />
            <mxPoint x="385" y="100" as="targetPoint" />
            <Array as="points">
              <mxPoint x="385" y="80" />
              <mxPoint x="385" y="80" />
            </Array>
          </mxGeometry>
        </mxCell>
        <mxCell id="v_TApCNlm0OIuF-yh1vD-73" value="" style="endArrow=none;html=1;rounded=0;edgeStyle=orthogonalEdgeStyle;" edge="1" parent="1">
          <mxGeometry relative="1" as="geometry">
            <mxPoint x="304.65999999999985" y="80" as="sourcePoint" />
            <mxPoint x="305" y="100" as="targetPoint" />
            <Array as="points">
              <mxPoint x="305" y="80" />
              <mxPoint x="305" y="80" />
            </Array>
          </mxGeometry>
        </mxCell>
        <mxCell id="v_TApCNlm0OIuF-yh1vD-74" value="" style="endArrow=none;html=1;rounded=0;edgeStyle=orthogonalEdgeStyle;entryX=0.6;entryY=0;entryDx=0;entryDy=0;entryPerimeter=0;" edge="1" parent="1" target="v_TApCNlm0OIuF-yh1vD-3">
          <mxGeometry relative="1" as="geometry">
            <mxPoint x="349.65999999999985" y="50" as="sourcePoint" />
            <mxPoint x="350" y="70" as="targetPoint" />
            <Array as="points" />
          </mxGeometry>
        </mxCell>
        <mxCell id="v_TApCNlm0OIuF-yh1vD-75" value="" style="ellipse;whiteSpace=wrap;html=1;align=center;" vertex="1" parent="1">
          <mxGeometry x="215" y="215" width="30" height="20" as="geometry" />
        </mxCell>
        <mxCell id="v_TApCNlm0OIuF-yh1vD-76" value="" style="ellipse;whiteSpace=wrap;html=1;align=center;" vertex="1" parent="1">
          <mxGeometry x="210" y="250" width="30" height="20" as="geometry" />
        </mxCell>
        <mxCell id="v_TApCNlm0OIuF-yh1vD-77" value="nome" style="text;html=1;align=center;verticalAlign=middle;resizable=0;points=[];autosize=1;strokeColor=none;fillColor=none;" vertex="1" parent="1">
          <mxGeometry x="180" y="270" width="50" height="20" as="geometry" />
        </mxCell>
        <mxCell id="v_TApCNlm0OIuF-yh1vD-78" value="ementa&lt;br&gt;" style="text;html=1;align=center;verticalAlign=middle;resizable=0;points=[];autosize=1;strokeColor=none;fillColor=none;" vertex="1" parent="1">
          <mxGeometry x="170" y="200" width="60" height="20" as="geometry" />
        </mxCell>
        <mxCell id="v_TApCNlm0OIuF-yh1vD-79" value="" style="endArrow=none;html=1;rounded=0;edgeStyle=orthogonalEdgeStyle;exitX=1;exitY=0;exitDx=0;exitDy=0;" edge="1" parent="1" source="v_TApCNlm0OIuF-yh1vD-75">
          <mxGeometry relative="1" as="geometry">
            <mxPoint x="250" y="220" as="sourcePoint" />
            <mxPoint x="290" y="220" as="targetPoint" />
            <Array as="points">
              <mxPoint x="241" y="220" />
            </Array>
          </mxGeometry>
        </mxCell>
        <mxCell id="v_TApCNlm0OIuF-yh1vD-80" value="" style="endArrow=none;html=1;rounded=0;edgeStyle=orthogonalEdgeStyle;entryX=0;entryY=0.75;entryDx=0;entryDy=0;" edge="1" parent="1" target="v_TApCNlm0OIuF-yh1vD-2">
          <mxGeometry relative="1" as="geometry">
            <mxPoint x="230" y="250" as="sourcePoint" />
            <mxPoint x="270" y="250" as="targetPoint" />
            <Array as="points" />
          </mxGeometry>
        </mxCell>
      </root>
    </mxGraphModel>
  </diagram>
</mxfile>
